<?xml version="1.0" encoding="UTF-8" standalone="no"?>
<!-- Generator: Adobe Illustrator 23.0.2, SVG Export Plug-In . SVG Version: 6.00 Build 0)  -->

<svg
   version="1.1"
   id="icon"
   x="0px"
   y="0px"
   width="32px"
   height="32px"
   viewBox="0 0 32 32"
   style="enable-background:new 0 0 32 32;"
   xml:space="preserve"
   sodipodi:docname="status-error.svg"
   inkscape:version="1.4.4 (dcaf3e7d9e, 2026-05-05)"
   xmlns:inkscape="http://www.inkscape.org/namespaces/inkscape"
   xmlns:sodipodi="http://sodipodi.sourceforge.net/DTD/sodipodi-0.dtd"
   xmlns="http://www.w3.org/2000/svg"
   xmlns:svg="http://www.w3.org/2000/svg"><defs
   id="defs1" /><sodipodi:namedview
   id="namedview1"
   pagecolor="#ffffff"
   bordercolor="#000000"
   borderopacity="0.25"
   inkscape:showpageshadow="2"
   inkscape:pageopacity="0.0"
   inkscape:pagecheckerboard="0"
   inkscape:deskcolor="#d1d1d1"
   inkscape:zoom="36.375"
   inkscape:cx="15.986254"
   inkscape:cy="16"
   inkscape:window-width="2560"
   inkscape:window-height="1375"
   inkscape:window-x="0"
   inkscape:window-y="0"
   inkscape:window-maximized="1"
   inkscape:current-layer="icon" />
<style
   type="text/css"
   id="style1">
	.st0{fill:none;}
	.st1{opacity:0;fill-opacity:0;}
</style>
<rect
   id="_Transparent_Rectangle_"
   class="st0"
   width="32"
   height="32" />
<path
   d="M16,2C8.3,2,2,8.3,2,16s6.3,14,14,14s14-6.3,14-14S23.7,2,16,2z M21.4,23L16,17.6L10.6,23L9,21.4l5.4-5.4L9,10.6L10.6,9  l5.4,5.4L21.4,9l1.6,1.6L17.6,16l5.4,5.4L21.4,23z"
   id="path1"
   style="fill:#d40000" />
<path
   id="inner-path"
   class="st1"
   d="M21.4,23L16,17.6L10.6,23L9,21.4l5.4-5.4L9,10.6L10.6,9l5.4,5.4L21.4,9l1.6,1.6L17.6,16  l5.4,5.4L21.4,23z" />
</svg>
