<?xml version="1.0" encoding="UTF-8" standalone="no"?>
<svg
   id="icon"
   viewBox="2 2 28 28"
   version="1.1"
   sodipodi:docname="split-right.svg"
   inkscape:version="1.4.4 (dcaf3e7d9e, 2026-05-05)"
   xmlns:inkscape="http://www.inkscape.org/namespaces/inkscape"
   xmlns:sodipodi="http://sodipodi.sourceforge.net/DTD/sodipodi-0.dtd"
   xmlns="http://www.w3.org/2000/svg"
   xmlns:svg="http://www.w3.org/2000/svg">
  <sodipodi:namedview
     id="namedview2"
     pagecolor="#ffffff"
     bordercolor="#000000"
     borderopacity="0.25"
     inkscape:showpageshadow="2"
     inkscape:pageopacity="0.0"
     inkscape:pagecheckerboard="0"
     inkscape:deskcolor="#d1d1d1"
     inkscape:zoom="36.375"
     inkscape:cx="15.986254"
     inkscape:cy="16"
     inkscape:window-width="2560"
     inkscape:window-height="1375"
     inkscape:window-x="0"
     inkscape:window-y="0"
     inkscape:window-maximized="1"
     inkscape:current-layer="icon" />
  <defs
     id="defs1">
    <style
       id="style1">.cls-1{fill:none;}</style>
  </defs>
  <title
     id="title1">split-screen</title>
  <rect
     x="15"
     y="4"
     width="2"
     height="24"
     id="rect1" />
  <path
     d="M10,7V25H4V7h6m0-2H4A2,2,0,0,0,2,7V25a2,2,0,0,0,2,2h6a2,2,0,0,0,2-2V7a2,2,0,0,0-2-2Z"
     id="path1" />
  <path
     d="m 28,5 h -6 c -1.104569,0 -2,0.8954305 -2,2 v 18 c 0,1.104569 0.895431,2 2,2 h 6 c 1.104569,0 2,-0.895431 2,-2 V 7 C 30,5.8954305 29.104569,5 28,5 Z"
     id="path2"
     sodipodi:nodetypes="sssssssss" />
  <rect
     id="_Transparent_Rectangle_"
     data-name="&lt;Transparent Rectangle&gt;"
     class="cls-1"
     width="32"
     height="32" />
</svg>
